<?xml version="1.0" encoding="utf-8"?>
<!-- Svg Vector Icons : http://www.onlinewebfonts.com/icon -->
<!DOCTYPE svg PUBLIC "-//W3C//DTD SVG 1.1//EN" "http://www.w3.org/Graphics/SVG/1.1/DTD/svg11.dtd">
<svg version="1.1" xmlns="http://www.w3.org/2000/svg" xmlns:xlink="http://www.w3.org/1999/xlink" x="0px" y="0px" viewBox="0 0 1000 1000" enable-background="new 0 0 1000 1000" xml:space="preserve">
<metadata> Svg Vector Icons : http://www.onlinewebfonts.com/icon </metadata>
<g><path d="M745.1,493.4l-1.6,1.2c-0.3,0.2-8,6-12.1,9.2l-18.3,14.7l23.2,3.6c1.5,0.2,3.6,0.4,6.9,0.7c39.8,3.5,63.4,10.4,70,20.7c11.5,17.9,10.8,37.9-2.1,54.7c-14.6,19.2-33.4,35.7-54.7,53.8c-9,7.6-19.7,14.1-31,21c-5.5,3.4-11.3,6.9-17.2,10.7L675.2,705l39.2-2.4c51.5-3.2,122.7-41.5,152.4-81.9c18.3-24.9,23.3-55.5,13.4-81.7c-9.5-25.1-31-43-59.2-49.2l-1-0.2c-8.8-1.1-17.9-1.6-27-1.6c-26.9,0-45.3,4.8-46,5L745.1,493.4z"/><path d="M443.8,485.5c7.7,7.3,15.6,14.8,23.1,22.3l5.4,5.4l7.1-5.5c1.1-0.9,2.3-1.8,3.4-2.6l6.4-4.9l-4.5-6.7c-4.7-7.1-9.4-14.2-14.2-21.3c-10.4-15.6-21.2-31.8-31.6-47.9c-29.2-45.3-26.2-82.7,9.6-121.4c12.1-13.1,26.3-25.1,39.9-36.7c4.9-4.1,9.9-8.4,14.8-12.7c38.6-33.7,76.1-72.6,88.8-127.8c8.5-36.9,1.2-68-21.9-92.5L548.5,10l7,31.1c11,48.5-2.6,90.8-41.3,129.1c-7.8,7.7-16.4,15-24.8,22.1c-6.1,5.1-12.3,10.4-18.4,15.9c-8.4,7.7-17,15.4-25.3,22.9c-24.4,22-49.7,44.8-73,68.9c-19.3,19.9-23,47.4-10.8,79.4C379,424.1,411.9,455.3,443.8,485.5z"/><path d="M341.2,604.2l0.7,0c1.1,0,2.2,0.1,3.3,0.1l-10.1,5.1c-13,6.5-40.7,29.3-38,54.5c2,18.1,18.3,31.2,48.7,39c27.1,6.9,60.7,10.4,100,10.4c0,0,0,0,0,0c110.9,0,233.7-28.1,234.9-28.4l8-1.8v-8.2c0-3.6,0-6.7-26.3-40.5l-4.1-5.3l-6.5,1.6c-1,0.2-100.3,23.9-238.4,23.9c-10.1,0-20.3-0.1-30.4-0.4c-18.3-0.5-30.7-4.6-34.9-11.6c-4.7-7.8,0.7-19.1,0.7-19.2l9.7-18.8c1.8,0,3.7,0,5.5,0c167.8,0,348.4-50.9,350.2-51.4l-3.6-20.2c-1.5,0.1-77.7,6-155.9,11.8c6.6-6.6,13.1-12.9,19.4-18.9c14.5-13.8,28.2-26.8,39.1-42.2c21.6-30.6,21.1-64.1-1.4-94.6c-8.2-11.1-16.5-23.4-26.7-39.7c-19.7-31.4-18.8-49.9,3.6-76.2c14-16.5,31.6-32.6,53.5-49.1c18.5-13.9,38.2-26.8,59.1-40.4c9.5-6.2,19.3-12.6,29.4-19.3l35.6-23.8l-42.5,4.9c-2.9,0.3-5.2,0.5-7.3,0.6c-3.9,0.3-7.4,0.5-10.9,2.1c-12,5.4-24.4,10.8-36.4,15.9c-31.4,13.6-63.9,27.6-94.3,44.8c-22.8,12.9-44.9,33.7-62.3,58.5c-34.3,49.1-28.4,102.3,17.9,162.7c31.6,41.3,32.1,48.1,5.8,91c-2.3,3.7-1.8,7.2-1.3,10.5c0.3,1.7,0.6,4,1,7.7l0.7,6.6c-69.8,5.1-136.8,9.8-149.3,9.8l-0.6,0c-47.3-1.1-61.5-6.4-65.6-8.8c2.2-2.6,8.8-8.8,28.4-18.2c14.8-7.1,29-12.3,29.6-12.5l7.5-2.7l-1.6-17.3h-9.4c-3.2,0-38.9,9.3-67.7,19.2c-62.3,21.3-71.3,36.1-71.9,47.8C235.1,584.8,265.6,596.7,341.2,604.2z"/><path d="M415,938.7c-92.4,0-140-12.5-140.5-12.6l-4.6-1.3c14.2,0.5,29.4,0.7,45.7,0.7c0,0,0,0,0,0c93.8,0,221.9-8.3,380.8-24.6l0.3,0c88.9-12.1,127.8-41.7,134.6-65.5c3-10.4,0.1-20.2-7.8-26.7l-16.4-13.6l-0.5,20.8c-3.2,5.6-29.9,19.9-110.2,35.3c-55.3,10.6-122.1,19.1-162.6,20.5c-14.6,0.5-30.2,0.8-46.1,0.8c-54.8,0-110.8-3.1-164.9-6.1c-12.8-0.7-25.7-1.4-38.5-2.1l-0.2,0c-45.3-1.6-49.7-10.3-49.8-10.3c-0.2-1.1,2.2-7.4,16.5-17.9c11.7-8.5,25.9-15.7,34.7-19.2l35.7-13.8l-37.8-6c-6.4-1-14-1.5-22.6-1.5c-37.1,0-106.4,11.1-134.5,40.7c-8.4,8.9-12.4,18.7-11.8,29.2c0,0.2,0,1,0,1.5c-0.2,5.1-0.5,15.6,9.4,25.8c15.8,16.3,54.2,26.4,116.6,30.5l24.4,20.6c2.2,1.9,56.1,46.1,182.3,46.1c39.4,0,82.1-4.4,126.8-13c76.7-14.8,219.9-56.2,302.7-91.9l-6.9-19.4C660.8,926,507.1,938.7,415,938.7z"/><path d="M566,746.8c-32.4,6.8-63.1,10.3-91.4,10.3c-72,0-108.8-22.4-118.3-29.2l-6.6-4.8l-47,40.9l8.5,7.8c2.1,1.9,52.4,46.8,170.8,46.8c55.2,0,116.6-9.9,182.6-29.3l36.9-10.9l-133.2-32.2L566,746.8z"/></g>
</svg>